<?xml version="1.0" encoding="utf-8"?>
<!-- Generator: Adobe Illustrator 19.2.0, SVG Export Plug-In . SVG Version: 6.00 Build 0)  -->
<svg version="1.1" id="Laag_1" xmlns="http://www.w3.org/2000/svg" xmlns:xlink="http://www.w3.org/1999/xlink" x="0px" y="0px"
	 viewBox="0 0 566.9 368.5" style="enable-background:new 0 0 566.9 368.5;" xml:space="preserve">
<style type="text/css">
	.st0{fill:none;stroke:#FFFFFF;stroke-width:1.4173;stroke-linejoin:round;stroke-miterlimit:10;}
</style>
<path class="st0" d="M205.9,242.3c-12.6,9.8-28.4,15.7-45.5,15.7l0,0c-40.9,0-74-33.1-74-74c0-40.9,33.1-74,74-74
	c13.5,0,26.1,3.6,36.9,9.9c14.6,8.4,26.1,21.7,32.2,37.7l-66.4,0.1c0,0-3.2-2.6-6-4.3c-3.8-2.2-11.9-5-18.8-5h0.1
	c-20.8,0-37.7,16.9-37.7,37.7c0,6.4,1.6,12.4,4.4,17.6l0,18.8h9.8v-7.1c0,0,4.1,3,6.4,4.2l0,0c5.1,2.6,10.9,4,17,4l0,0
	c9.5,0,18.1-3.5,24.7-9.2v0h35.9v8.1h24.6h0c3.7-6,6.5-12.7,8.3-19.7l-0.1,0h-23.4h-0.1c-1.4,0-2.5-1.1-2.5-2.5
	c0-1.4,1.1-2.5,2.5-2.5h0.1h24.6l0,0c0.7-3.6,1.1-7.4,1.2-11.2l0,0h-26h0.1c-1.4,0-2.5-1.1-2.5-2.5c0-1.4,1.1-2.5,2.5-2.5l25.9,0
	l0,0c-0.1-2.7-0.3-5.3-0.7-7.9l0,0l-59.7,0c1.3,3.9,2.1,8,2.1,12.3v0.2l-10.4,0c0,15.6-12.6,28.2-28.2,28.2s-28.2-12.6-28.2-28.2
	c0-15.6,12.6-28.2,28.2-28.2h-0.2c11,0,20.6,6.3,25.3,15.4"/>
</svg>
